<mxfile host="app.diagrams.net" modified="2024-05-16T20:17:11.974Z" agent="Mozilla/5.0 (Macintosh; Intel Mac OS X 10_15_7) AppleWebKit/605.1.15 (KHTML, like Gecko) Version/17.2.1 Safari/605.1.15" version="24.4.3" etag="hg1IfCwE514YmdHAjGBg" type="github">
  <diagram name="PÃ¡gina-1" id="MfszXyNhPp4YPT7b-e0M">
    <mxGraphModel>
      <root>
        <mxCell id="0" />
        <mxCell id="1" parent="0" />
      </root>
    </mxGraphModel>
  </diagram>
</mxfile>
